<svg width="16" height="16" viewBox="0 0 16 16" fill="none" xmlns="http://www.w3.org/2000/svg">
<g id="&#240;&#159;&#166;&#134; icon &#34;volume high&#34;">
<path id="Vector" d="M6.68 0L4 4H0V12H4L6.68 16H8V0H6.68ZM10 2V4C10.34 4 10.68 4.04 11 4.12C12.72 4.56 14 6.12 14 8C14 9.88 12.74 11.44 11 11.88C10.68 11.96 10.34 12 10 12V14C10.5 14 10.96 13.92 11.44 13.82H11.5C14.1 13.16 16 10.8 16 8C16 5.2 14.1 2.84 11.5 2.18C11.04 2.06 10.52 2 10 2ZM10 6V10C10.18 10 10.36 9.98 10.5 9.94C11.36 9.72 12 8.92 12 8C12 7.08 11.38 6.28 10.5 6.06C10.34 6.02 10.16 6 10 6Z" fill="#0077B6"/>
</g>
</svg>
